<svg width="24" height="24" viewBox="0 0 24 24" fill="none" xmlns="http://www.w3.org/2000/svg">
<path fill-rule="evenodd" clip-rule="evenodd" d="M5.3636 18.6364C5.71507 18.9879 6.28492 18.9879 6.63639 18.6364L12.6364 12.6364C12.9879 12.2849 12.9879 11.7151 12.6364 11.3636L6.63639 5.36363C6.28492 5.01216 5.71507 5.01216 5.3636 5.36363C5.01213 5.7151 5.01213 6.28495 5.3636 6.63642L10.7272 12L5.3636 17.3636C5.01213 17.7151 5.01213 18.2849 5.3636 18.6364Z" fill="black"/>
<path fill-rule="evenodd" clip-rule="evenodd" d="M18.6364 18.6364C18.2849 18.9879 17.7151 18.9879 17.3636 18.6364L11.3636 12.6364C11.0121 12.2849 11.0121 11.7151 11.3636 11.3636L17.3636 5.36363C17.7151 5.01216 18.2849 5.01216 18.6364 5.36363C18.9879 5.7151 18.9879 6.28495 18.6364 6.63642L13.2728 12L18.6364 17.3636C18.9879 17.7151 18.9879 18.2849 18.6364 18.6364Z" fill="black"/>
</svg>
