<svg width="20" height="20" viewBox="0 0 20 20" fill="none" xmlns="http://www.w3.org/2000/svg">
<path d="M19.2372 5.09764C19.2167 5.09764 19.186 5.09764 19.1552 5.09764C13.7288 4.60462 8.31259 4.41858 2.94768 4.9116L0.855075 5.09764C0.424243 5.13485 0.0447015 4.85578 0.00366995 4.46509C-0.0373616 4.07439 0.270375 3.73951 0.690949 3.7023L2.78356 3.51626C8.24079 3.01393 13.7698 3.20928 19.3091 3.7023C19.7296 3.73951 20.0374 4.08369 19.9963 4.46509C19.9656 4.82788 19.627 5.09764 19.2372 5.09764Z" fill="#F20303"/>
<path d="M6.4161 4.15812C6.37507 4.15812 6.33404 4.15812 6.28275 4.14882C5.87243 4.0837 5.58521 3.72091 5.65702 3.34882L5.88269 2.13022C6.04682 1.2372 6.27249 0 8.66254 0H11.3501C13.7505 0 13.9761 1.28372 14.13 2.13953L14.3557 3.34882C14.4275 3.73022 14.1403 4.093 13.7299 4.14882C13.3094 4.21393 12.9093 3.95347 12.8478 3.58138L12.6221 2.37208C12.4785 1.56278 12.4477 1.40464 11.3604 1.40464H8.67279C7.5855 1.40464 7.56498 1.53488 7.41112 2.36278L7.17518 3.57208C7.11364 3.91626 6.78538 4.15812 6.4161 4.15812Z" fill="#F20303"/>
<path d="M13.2993 19.9999H6.71371C3.13371 19.9999 2.9901 18.2046 2.87726 16.7534L2.2105 7.38602C2.17972 7.00462 2.50797 6.66975 2.92855 6.64184C3.35938 6.62324 3.71841 6.91161 3.74918 7.293L4.41594 16.6604C4.52878 18.0744 4.56981 18.6046 6.71371 18.6046H13.2993C15.4534 18.6046 15.4945 18.0744 15.5971 16.6604L16.2638 7.293C16.2946 6.91161 16.6639 6.62324 17.0844 6.64184C17.505 6.66975 17.8333 6.99532 17.8025 7.38602L17.1357 16.7534C17.0229 18.2046 16.8793 19.9999 13.2993 19.9999Z" fill="#F20303"/>
<path d="M11.7097 14.8837H8.29378C7.87318 14.8837 7.52441 14.5675 7.52441 14.1861C7.52441 13.8047 7.87318 13.4884 8.29378 13.4884H11.7097C12.1302 13.4884 12.479 13.8047 12.479 14.1861C12.479 14.5675 12.1302 14.8837 11.7097 14.8837Z" fill="#F20303"/>
<path d="M12.5697 11.1626H7.44073C7.02016 11.1626 6.67139 10.8463 6.67139 10.4649C6.67139 10.0835 7.02016 9.76721 7.44073 9.76721H12.5697C12.9902 9.76721 13.339 10.0835 13.339 10.4649C13.339 10.8463 12.9902 11.1626 12.5697 11.1626Z" fill="#F20303"/>
</svg>
