<svg width="23" height="23" viewBox="0 0 23 23" fill="none" xmlns="http://www.w3.org/2000/svg">
<path d="M11.5 0C5.1635 0 0 5.1635 0 11.5C0 17.8365 5.1635 23 11.5 23C17.8365 23 23 17.8365 23 11.5C23 5.1635 17.8365 0 11.5 0ZM15.364 14.145C15.6975 14.4785 15.6975 15.0305 15.364 15.364C15.1915 15.5365 14.973 15.617 14.7545 15.617C14.536 15.617 14.3175 15.5365 14.145 15.364L11.5 12.719L8.855 15.364C8.6825 15.5365 8.464 15.617 8.2455 15.617C8.027 15.617 7.8085 15.5365 7.636 15.364C7.3025 15.0305 7.3025 14.4785 7.636 14.145L10.281 11.5L7.636 8.855C7.3025 8.5215 7.3025 7.9695 7.636 7.636C7.9695 7.3025 8.5215 7.3025 8.855 7.636L11.5 10.281L14.145 7.636C14.4785 7.3025 15.0305 7.3025 15.364 7.636C15.6975 7.9695 15.6975 8.5215 15.364 8.855L12.719 11.5L15.364 14.145Z" fill="#F20303"/>
</svg>
