<svg width="497" height="427" viewBox="0 0 497 427" fill="none" xmlns="http://www.w3.org/2000/svg">
<path d="M450.846 148.693C513.164 178.683 510.64 268.273 446.732 294.706L307.803 352.169L137.483 419.34C62.8499 448.773 -14.3581 382.74 2.66147 304.339C15.3828 245.738 26.3398 193.792 27.068 185.469C27.4602 180.987 27.2531 162.102 26.6912 135.356C24.335 23.2136 154.59 -40.6957 240.866 30.9843L284.736 67.4335C287.249 69.5214 290.009 71.2936 292.953 72.7104L450.846 148.693Z" fill="#163A61"/>
<path d="M251.587 276.426C168.251 250.221 162.249 134.583 242.425 99.8924V99.8924L316.819 68.9924C399.889 34.4892 476.449 103.682 476.449 193.633V193.633V193.633C476.449 284.958 390.8 349.987 311.688 304.362L280.928 286.622C278.469 285.204 275.862 284.059 273.154 283.207L251.587 276.426Z" fill="#B6C3D8"/>
<path d="M183.62 231.272H171.828V252H143.264V231.272H100.563V210.032L145.095 144.92H171.828V209.666H183.62V231.272ZM143.264 209.666V197.215C143.264 196.092 143.288 194.676 143.337 192.967C143.386 191.258 143.435 189.549 143.483 187.84C143.581 186.082 143.654 184.617 143.703 183.445C143.801 182.225 143.874 181.565 143.923 181.468H143.117C142.189 183.665 141.335 185.496 140.554 186.961C139.772 188.377 138.747 190.062 137.478 192.015L125.612 209.666H143.264ZM268.508 198.606C268.508 207.2 267.824 214.891 266.457 221.678C265.09 228.416 262.893 234.153 259.865 238.89C256.887 243.626 252.932 247.239 248 249.729C243.068 252.22 237.014 253.465 229.836 253.465C220.9 253.465 213.576 251.292 207.863 246.946C202.15 242.552 197.927 236.277 195.192 228.123C192.507 219.92 191.164 210.081 191.164 198.606C191.164 187.034 192.385 177.146 194.826 168.943C197.316 160.691 201.394 154.368 207.058 149.974C212.722 145.579 220.314 143.382 229.836 143.382C238.771 143.382 246.071 145.579 251.735 149.974C257.448 154.319 261.672 160.618 264.406 168.87C267.141 177.073 268.508 186.985 268.508 198.606ZM219.948 198.606C219.948 205.589 220.192 211.448 220.681 216.185C221.218 220.921 222.194 224.485 223.61 226.878C225.075 229.222 227.15 230.394 229.836 230.394C232.521 230.394 234.572 229.222 235.988 226.878C237.404 224.485 238.381 220.945 238.918 216.258C239.455 211.521 239.724 205.638 239.724 198.606C239.724 191.526 239.455 185.618 238.918 180.882C238.381 176.146 237.404 172.581 235.988 170.188C234.572 167.747 232.521 166.526 229.836 166.526C227.15 166.526 225.075 167.747 223.61 170.188C222.194 172.581 221.218 176.146 220.681 180.882C220.192 185.618 219.948 191.526 219.948 198.606ZM359.401 231.272H347.609V252H319.045V231.272H276.345V210.032L320.876 144.92H347.609V209.666H359.401V231.272ZM319.045 209.666V197.215C319.045 196.092 319.069 194.676 319.118 192.967C319.167 191.258 319.216 189.549 319.265 187.84C319.362 186.082 319.436 184.617 319.484 183.445C319.582 182.225 319.655 181.565 319.704 181.468H318.898C317.971 183.665 317.116 185.496 316.335 186.961C315.554 188.377 314.528 190.062 313.259 192.015L301.394 209.666H319.045Z" fill="#EFEFEF"/>
</svg>
