<svg width="24" height="24" viewBox="0 0 24 24" fill="none" xmlns="http://www.w3.org/2000/svg">
<path fill-rule="evenodd" clip-rule="evenodd" d="M12 20C11.5763 20 11.2328 19.6565 11.2328 19.2328V12.7672L4.76716 12.7672C4.34347 12.7672 4 12.4237 4 12C4 11.5763 4.34347 11.2328 4.76716 11.2328H11.2328V4.76716C11.2328 4.34347 11.5763 4 12 4C12.4237 4 12.7672 4.34347 12.7672 4.76716L12.7672 11.2328H19.2328C19.6565 11.2328 20 11.5763 20 12C20 12.4237 19.6565 12.7672 19.2328 12.7672H12.7672V19.2328C12.7672 19.6565 12.4237 20 12 20Z" fill="white"/>
</svg>
