<svg width="20" height="21" viewBox="0 0 20 21" fill="none" xmlns="http://www.w3.org/2000/svg">
<path d="M9.22899 16.719H6.91418C5.78249 16.719 4.85656 17.6449 4.85656 18.7766V19.0338H3.82776C3.40595 19.0338 3.05615 19.3836 3.05615 19.8054C3.05615 20.2272 3.40595 20.577 3.82776 20.577H16.1734C16.5952 20.577 16.945 20.2272 16.945 19.8054C16.945 19.3836 16.5952 19.0338 16.1734 19.0338H15.1446V18.7766C15.1446 17.6449 14.2187 16.719 13.087 16.719H10.7722V14.363C10.515 14.3939 10.2578 14.4042 10.0006 14.4042C9.7434 14.4042 9.48619 14.3939 9.22899 14.363V16.719Z" fill="white"/>
<path d="M16.6667 9.9177C17.3457 9.66049 17.9424 9.23868 18.4156 8.76543C19.3724 7.70576 20 6.44033 20 4.95885C20 3.47737 18.8374 2.31481 17.356 2.31481H16.7798C16.1111 0.946502 14.7119 0 13.0864 0H6.91358C5.28807 0 3.88889 0.946502 3.22016 2.31481H2.64403C1.16255 2.31481 0 3.47737 0 4.95885C0 6.44033 0.627572 7.70576 1.58436 8.76543C2.05761 9.23868 2.65432 9.66049 3.33333 9.9177C4.40329 12.5514 6.97531 14.4033 10 14.4033C13.0247 14.4033 15.5967 12.5514 16.6667 9.9177ZM12.9218 6.6358L12.284 7.4177C12.1811 7.53086 12.1091 7.7572 12.1193 7.91152L12.1811 8.91975C12.2222 9.53704 11.7798 9.85597 11.2037 9.62963L10.2675 9.25926C10.1235 9.20782 9.87654 9.20782 9.73251 9.25926L8.7963 9.62963C8.22017 9.85597 7.77778 9.53704 7.81893 8.91975L7.88066 7.91152C7.89095 7.7572 7.81893 7.53086 7.71605 7.4177L7.07819 6.6358C6.67696 6.16255 6.85185 5.63786 7.44856 5.48354L8.42593 5.23663C8.58025 5.19547 8.76543 5.05144 8.84774 4.9177L9.39301 4.07407C9.73251 3.54938 10.2675 3.54938 10.607 4.07407L11.1523 4.9177C11.2346 5.05144 11.4198 5.19547 11.5741 5.23663L12.5514 5.48354C13.1481 5.63786 13.323 6.16255 12.9218 6.6358Z" fill="white"/>
</svg>
