<svg width="18" height="15" viewBox="0 0 18 15" fill="none" xmlns="http://www.w3.org/2000/svg">
<path d="M17.6643 0.25299C17.8626 0.429396 17.9827 0.67728 17.9983 0.942185C18.0139 1.20709 17.9236 1.46735 17.7475 1.66578L7.06795 13.681C6.97401 13.7867 6.85875 13.8713 6.72974 13.9292C6.60074 13.9872 6.46093 14.0171 6.31951 14.0171C6.17809 14.0171 6.03827 13.9872 5.90927 13.9292C5.78027 13.8713 5.665 13.7867 5.57106 13.681L0.23131 7.67337C0.0652186 7.47358 -0.0167071 7.21704 0.00283963 6.95797C0.0223863 6.69889 0.141875 6.45755 0.336063 6.28494C0.530251 6.11233 0.783932 6.02196 1.04352 6.03292C1.3031 6.04388 1.54826 6.15532 1.7272 6.34369L6.31901 11.5092L16.2516 0.335094C16.4281 0.136999 16.6761 0.0170827 16.941 0.00168807C17.2059 -0.0137066 17.466 0.0766791 17.6643 0.25299Z" fill="#0D0D0D"/>
</svg>
