<svg width="54" height="58" viewBox="0 0 54 58" fill="none" xmlns="http://www.w3.org/2000/svg">
<circle cx="27" cy="31" r="27" fill="white"/>
<path d="M24.3184 29.4961C24.3184 30.6582 24.0254 31.7617 23.4395 32.8066C22.8535 33.8418 21.9404 34.6816 20.7002 35.3262C19.4697 35.9707 17.8779 36.293 15.9248 36.293C14.9482 36.293 14.0889 36.249 13.3467 36.1611C12.6143 36.0732 11.9307 35.9316 11.2959 35.7363C10.6611 35.5312 10.002 35.2676 9.31836 34.9453V29.7891C10.4805 30.375 11.6523 30.8242 12.834 31.1367C14.0156 31.4395 15.085 31.5908 16.042 31.5908C16.6182 31.5908 17.0869 31.5225 17.4482 31.3857C17.8193 31.249 18.0928 31.0635 18.2686 30.8291C18.4443 30.585 18.5322 30.3066 18.5322 29.9941C18.5322 29.623 18.4004 29.3105 18.1367 29.0566C17.8828 28.793 17.4727 28.5195 16.9062 28.2363C16.3398 27.9531 15.5928 27.6016 14.665 27.1816C13.874 26.8105 13.1562 26.4297 12.5117 26.0391C11.877 25.6484 11.3301 25.2041 10.8711 24.7061C10.4219 24.1982 10.0752 23.6074 9.83105 22.9336C9.58691 22.2598 9.46484 21.4639 9.46484 20.5459C9.46484 19.1689 9.80176 18.0166 10.4756 17.0889C11.1592 16.1514 12.1064 15.4482 13.3174 14.9795C14.5381 14.5107 15.9443 14.2764 17.5361 14.2764C18.9326 14.2764 20.1875 14.4326 21.3008 14.7451C22.4238 15.0576 23.4297 15.4141 24.3184 15.8145L22.5459 20.2822C21.6279 19.8623 20.7246 19.5303 19.8359 19.2861C18.9473 19.0322 18.1221 18.9053 17.3604 18.9053C16.8623 18.9053 16.4521 18.9688 16.1299 19.0957C15.8174 19.2129 15.583 19.374 15.4268 19.5791C15.2803 19.7842 15.207 20.0186 15.207 20.2822C15.207 20.6143 15.334 20.9121 15.5879 21.1758C15.8516 21.4395 16.2861 21.7275 16.8916 22.04C17.5068 22.3428 18.3418 22.7383 19.3965 23.2266C20.4414 23.6953 21.3301 24.2031 22.0625 24.75C22.7949 25.2871 23.3516 25.9365 23.7324 26.6982C24.123 27.4502 24.3184 28.3828 24.3184 29.4961Z" fill="#EA5A0C"/>
<path d="M27.6455 49L23.2656 33.5752H23.1338C23.1729 33.9756 23.2119 34.5176 23.251 35.2012C23.2998 35.8848 23.3438 36.6221 23.3828 37.4131C23.4219 38.2041 23.4414 38.9658 23.4414 39.6982V49H18.3145V27.584H26.0195L30.4873 42.7891H30.6045L34.9844 27.584H42.7041V49H37.3867V39.6104C37.3867 38.9365 37.3965 38.2139 37.416 37.4424C37.4453 36.6611 37.4746 35.9287 37.5039 35.2451C37.543 34.5518 37.5771 34.0049 37.6064 33.6045H37.4746L33.1533 49H27.6455Z" fill="#163A61"/>
<path d="M43.2957 17.6199C44.2391 17.5301 45.2066 18.2644 45.0012 18.9088L44.67 19.948C44.344 20.971 42.7677 21.6755 41.1901 21.5277L36.9641 21.1215C36.2212 21.0533 35.0933 20.6939 34.4604 20.3236L30.7786 18.2096C29.394 17.4133 28.5284 15.9307 28.8545 14.9076L29.1882 13.8604C29.391 13.224 30.605 13.185 31.3126 13.7921L33.5219 15.6852C34.365 16.4242 35.5377 17.0287 36.7772 17.4237C38.0167 17.8187 39.3229 18.0043 40.4381 17.8894L43.2957 17.6199Z" fill="#163A61"/>
<path d="M49.5545 11.467L43.1391 5.93505C41.9828 4.93649 39.7765 4.23337 38.2556 4.3787L29.7852 5.16658C27.0721 5.41115 26.3456 7.69088 28.4143 9.46826L30.1304 10.9381L34.8694 15.004C36.0257 16.0026 38.232 16.7057 39.7529 16.5604L45.9335 15.9745L47.8626 15.7906L47.077 18.2556C46.9717 18.5859 47.3059 18.9941 47.814 19.156C48.3222 19.318 48.8309 19.1784 48.9362 18.8481L50.1993 14.8848C51.0263 14.0036 50.9032 12.6333 49.5545 11.467Z" fill="#163A61"/>
</svg>
